<?xml version="1.0" encoding="UTF-8"?>
<svg id="Capa_1" data-name="Capa 1" xmlns="http://www.w3.org/2000/svg" viewBox="0 0 1080 1080">
  <path d="M658.6,540l396.83-396.83c32.76-32.74,32.76-85.86,0-118.6-32.76-32.76-85.83-32.76-118.6,0l-396.83,396.83L143.17,24.57C110.41-8.19,57.33-8.19,24.57,24.57c-32.76,32.74-32.76,85.86,0,118.6l396.83,396.83L24.57,936.83c-32.76,32.74-32.76,85.86,0,118.6,16.38,16.38,37.84,24.57,59.3,24.57s42.92-8.19,59.3-24.57l396.83-396.83,396.83,396.83c16.38,16.38,37.84,24.57,59.3,24.57s42.92-8.19,59.3-24.57c32.76-32.74,32.76-85.86,0-118.6l-396.83-396.83Z"/>
</svg>